<svg xmlns="http://www.w3.org/2000/svg" data-name="Layer 1" height="50" width="50" viewBox="0 0 100 125" x="0px" y="0px" fill="red" stroke="red"><title>User Interface</title><path d="M68.32,31.679a1.236,1.236,0,0,0-1.744,0L50,48.256,33.424,31.679a1.234,1.234,0,0,0-1.744,1.746L48.256,50,31.68,66.576a1.233,1.233,0,0,0,1.744,1.744L50,51.744,66.576,68.32a1.233,1.233,0,0,0,1.744-1.744L51.744,50,68.32,33.425A1.235,1.235,0,0,0,68.32,31.679Z"/><path d="M50,2.5A47.5,47.5,0,1,0,97.5,50,47.553,47.553,0,0,0,50,2.5Zm0,92.533A45.033,45.033,0,1,1,95.033,50,45.084,45.084,0,0,1,50,95.033Z"/></svg>