<svg xmlns="http://www.w3.org/2000/svg" xmlns:xlink="http://www.w3.org/1999/xlink" width="15" version="1.1" x="0px" y="0px" viewBox="0 0 100 125" enable-background="new 0 0 100 100" xml:space="preserve"><path d="M70,37.5L57.5,25l-3-3h-4.2H31h-3h-8.5c-3,0-5.5,2.5-5.5,5.5v64c0,3,2.5,5.5,5.5,5.5h47.9c3,0,5.5-2.5,5.5-5.5V75v-3V44.6  v-4.1L70,37.5z M54.7,26.4l14.8,14.8H57.2c-1.4,0-2.5-1.1-2.5-2.5V26.4z M70,72v3v16.5c0,1.4-1.1,2.5-2.5,2.5H19.5  c-1.4,0-2.5-1.1-2.5-2.5v-64c0-1.4,1.1-2.5,2.5-2.5H28h3h20.7v13.7c0,3,2.5,5.5,5.5,5.5H70V72z"/><path d="M83,18.4L70.6,6l-3-3h-4.2H32.5c-3,0-5.5,2.5-5.5,5.5V16h0c0,0.8,0.7,1.5,1.5,1.5c0.8,0,1.5-0.6,1.5-1.5l0,0  c0,0,0-7.5,0-7.5C30,7.1,31.2,6,32.5,6h32.2v13.7c0,3,2.5,5.5,5.5,5.5H83v47.3c0,1.4-1.1,2.5-2.5,2.5l-2,0c-0.8,0-1.5,0.7-1.5,1.5  c0,0.8,0.7,1.5,1.5,1.5l2,0c3,0,5.5-2.5,5.5-5.5v-47v-4.1L83,18.4z M70.2,22.1c-1.4,0-2.5-1.1-2.5-2.5V7.3l14.8,14.8H70.2z"/></svg>